<?xml version="1.0" encoding="UTF-8"?>
<svg id="_Ñëîé_1" data-name="Ñëîé 1" xmlns="http://www.w3.org/2000/svg" viewBox="0 0 1255.03 1504.53">
  <defs>
    <style>
      .cls-1 {
        fill: #a6aad2;
      }

      .cls-1, .cls-2, .cls-3, .cls-4, .cls-5, .cls-6, .cls-7, .cls-8 {
        stroke-width: 0px;
      }

      .cls-2 {
        fill: #9da4f2;
      }

      .cls-3 {
        fill: #242247;
      }

      .cls-4 {
        fill: #fff;
      }

      .cls-5 {
        fill: #018e95;
      }

      .cls-6 {
        fill: #754bea;
      }

      .cls-7 {
        fill: #4165a4;
      }

      .cls-8 {
        fill: #10a9b1;
      }
    </style>
  </defs>
  <g id="Illustration">
    <g>
      <g>
        <g>
          <path class="cls-2" d="M765.1,1152.2c1.95-21.86-83.49-47.36-190.85-56.95s-195.97.38-197.92,22.24c-1.95,21.87,83.49,47.37,190.85,56.96,107.35,9.58,195.97-.38,197.92-22.25Z"/>
          <path class="cls-4" d="M645.81,1179.52c-24.1,0-50.7-1.19-78.75-3.69-52.01-4.64-100.55-13.14-136.68-23.92-25.99-7.76-56.71-20.05-55.41-34.53,1.29-14.48,33.7-21.13,60.65-24.16,37.47-4.21,86.75-3.97,138.76.67,52.01,4.64,100.55,13.14,136.68,23.92,25.99,7.76,56.71,20.04,55.41,34.52-1.53,17.1-50.47,27.2-120.67,27.2ZM495.94,1092.97c-22.01,0-42.34.99-60.02,2.98-36.13,4.06-57.35,11.96-58.21,21.66-.87,9.71,18.62,21.24,53.45,31.64,35.96,10.73,84.31,19.19,136.14,23.82,115.46,10.3,194.77-2.54,196.42-21h0c.87-9.71-18.62-21.24-53.45-31.63-35.96-10.73-84.31-19.19-136.14-23.82-27.26-2.43-53.76-3.65-78.19-3.65Z"/>
        </g>
        <path class="cls-3" d="M732.43,1153.72c1.04-11.63-70.7-27.55-160.22-35.54-89.53-7.99-162.96-5.05-164,6.59-1.03,11.64,70.7,27.55,160.23,35.54,89.53,7.99,162.96,5.05,163.99-6.59Z"/>
        <path class="cls-4" d="M376.61,1119.89s6.63,18.54,58.96,31.42c13.57,3.33,41.23,10.27,64.11,14,33.4,5.45,66.99,9.01,69.69,9.29,0,0,31.71,3.27,66.92,3.84,23.18.38,51.62-1.54,65.57-2.42,53.78-3.41,63.6-20.48,63.6-20.48,0,0,3.25,96.67-15.86,168.07-19.11,71.39-70.11,153-70.11,153-11.59,20.88-70.8,32.47-140.77,26.23-70.94-6.34-127.79-28.76-134.24-51.69h-.12s-35.76-89.4-41.92-163.05c-6.15-73.65,14.17-168.21,14.17-168.21Z"/>
      </g>
      <g>
        <path class="cls-7" d="M306.4,491.01c39.28,3.69,96.69,28.87,117.42,38.39,3.09,4.14,5.87,8.56,6.26,12.38,1,9.86-7.12,22.83-7.12,22.83,0,0,10.87-9.36,14.34-20.64.79-2.56,1.1-5.05,1.14-7.39,15.71,9.85,107.76,70.38,127.82,149.24,15.98,62.82-27.21,77.05-69.25,66.75-10.88-2.66-17.33,5.39-17.33,5.39-5-15.32-27.44-13.75-46.15-13.75-18.7,0-75.88-25.73-126.47-87.65-28.52-34.9-43.79-76-45.86-108.6,11.07,11.26,27.86,14.57,27.86,14.57,0,0-11.9-9.45-21.87-22.37-2.91-3.78-4.5-8.05-5.44-12.22.78-6,2.2-11.45,4.18-16.25,5.6,5.27,15.97,7.81,15.97,7.81,0,0-6.29-4.52-9.09-9.18-1.45-2.41-1.9-4.92-1.99-7.35,2.59-3.55,5.61-6.54,9.23-8.66,6.08-3.55,15.32-4.36,26.36-3.32Z"/>
        <path class="cls-5" d="M373.73,567.44c-.25,0-.5-.1-.68-.3-.34-.38-.32-.96.06-1.3.08-.08,8.56-7.85,16.22-19.03,7.47-10.91,1.67-30.16,1.61-30.35-.15-.49.12-1,.61-1.15.49-.15,1,.12,1.15.61.26.82,6.13,20.29-1.85,31.94-7.79,11.37-16.41,19.27-16.5,19.35-.18.16-.4.24-.62.24Z"/>
        <path class="cls-5" d="M353.61,549.98c-.32,0-.63-.17-.8-.47-.25-.44-.09-1,.35-1.25.09-.05,8.89-5.13,12.49-16.79,3.62-11.71-2.12-25.36-2.18-25.49-.2-.47.02-1.01.48-1.21.47-.2,1.01.02,1.21.48.25.58,6.07,14.4,2.24,26.76-3.83,12.39-12.96,17.64-13.35,17.85-.14.08-.3.12-.45.12Z"/>
        <path class="cls-5" d="M544.85,1165.08s-29.05-249.44-40.1-320.13c-11.04-70.69-43.84-202.13-111.86-251.76-68.02-49.64-82.6-62.51-89.99-72.61-7.39-10.08-9.04-21.12-9.04-21.12,0,0,2.3,18,9.03,26.31,11.41,14.09,53.91,44.78,94.41,79.5,28.58,24.5,65.61,90.6,79.58,157.84,13.98,67.25,55.81,403.3,55.81,403.3l12.17-1.34Z"/>
        <path class="cls-4" d="M521.04,756.6c-7.55,0-15.69-1.03-24.25-3.13-.49-.12-.8-.62-.67-1.11.12-.49.61-.79,1.11-.67,25.47,6.25,47.97,2.62,60.19-9.7,11.54-11.64,14.29-30.98,7.95-55.93-19.35-76.09-105.53-134.77-126.07-147.84-.15,2.13-.52,4.11-1.11,6.03-3.51,11.4-14.17,20.68-14.62,21.06-.34.3-.85.3-1.2,0-.35-.3-.42-.8-.18-1.19.08-.13,7.94-12.82,6.98-22.25-.4-3.84-3.54-8.5-5.94-11.73-22.61-10.38-78.77-34.63-116.91-38.22-11.63-1.1-20.31-.02-25.81,3.19-3.32,1.94-6.25,4.69-8.95,8.4-.3.41-.87.5-1.29.2-.41-.3-.5-.88-.2-1.29,2.86-3.92,5.97-6.84,9.51-8.91,5.84-3.41,14.89-4.57,26.91-3.44,38.54,3.62,95.16,28.11,117.72,38.47.14.06.26.16.35.29,2.76,3.7,5.99,8.51,6.44,12.83.61,6.03-1.99,13.04-4.25,17.81,3.36-3.74,7.73-9.49,9.67-15.8.69-2.23,1.05-4.56,1.1-7.13,0-.33.19-.63.48-.79.29-.16.64-.15.93.03,17.91,11.23,108.24,71.23,128.22,149.79,6.51,25.61,3.6,45.55-8.42,57.68-8.71,8.78-21.87,13.32-37.69,13.32Z"/>
      </g>
      <g>
        <path class="cls-5" d="M730.45,478c8.37.54,16.37,2.5,23.83,6.2,9.01,4.45,16.07,10.25,21.54,17.25.09,5.33-.38,10.72-2.19,15.08-5.75,13.79-12.79,21.33-12.79,21.33,0,0,17.33-9.52,23.71-21.12,9.37,23.95,6.99,57.65-2.82,101.12-15.68,69.47-74.4,80.26-100.05,82.06-39.84,2.79-52.52,9.56-52.52,9.56-7.13-18.18-47.3-9.13-83.53-36.21-14.88-11.12-11.13-32.49.92-55.97,5.63,11.88,21.78,19.67,21.78,19.67,0,0-6.98-7.02-15.56-17.07-1.89-2.2-3.02-4.79-3.75-7.44,17.99-32.45,50.44-67.96,71.7-86.14,4.99-4.26,10.31-8.45,15.84-12.51,3.32,9.29,12.37,20.21,12.37,20.21,0,0-2.54-4.31-5.52-15.55-.91-3.44.5-7.36,2.73-11.17,19.36-12.9,40.74-23.41,61.45-27.48-1.95,7.63,2.39,15.21,2.39,15.21,0,0-1.48-3.97,1.92-12.35.59-1.46,1.8-2.81,3.19-4.1,5.2-.63,10.34-.88,15.35-.56Z"/>
        <path class="cls-7" d="M740.62,498.42s-97.06,141.77-120.43,250.72c-23.38,108.95-47.07,429.8-47.07,429.8l-12.01-18.39s37.65-364.09,54.34-427.95c26.88-102.8,125.16-234.18,125.16-234.18Z"/>
      </g>
      <g>
        <g>
          <path class="cls-1" d="M1251.1,2.77c-4.83-1.25-14.46-1.1-27.07.14-23.12,12.59-75.79,23.91-90.05,26.2-15.75,2.53-23.61,43.34-23.61,43.34,0,0,3.68-18,3.95-34.48.06-3.79-.73-7.4-1.89-10.73-75.62,23.1-165,62.46-225.02,120.16-121.04,116.39,26.12,184.38,26.12,184.38,80.74,29.65,160.37-49.98,204.84-106.73-36.74,16.71-90.07,15.78-90.07,15.78,0,0,44.68-4.7,75.25-16.65,10.48-4.11,19.52-9.67,27-15.17,3.06-4.2,6.5-8.76,9-12.39,31.7-45.93,102.18-148.39,113.78-182.11-7.61,1.47-15.88,5.8-15.88,5.8,0,0,12.21-6.32,15.43-16.35.05-.14,0-.32.05-.47-.54-.26-1.07-.53-1.84-.73Z"/>
          <path class="cls-4" d="M949.46,338.88c-12.38,0-24.45-2.15-36.17-6.45-.69-.32-64.35-30.3-73.29-83.46-5.47-32.53,10.32-66.87,46.93-102.07,68.32-65.69,170.48-103.58,225.3-120.33.36-.11.73.08.86.43,1.35,3.9,1.98,7.48,1.93,10.97-.11,6.78-.8,13.86-1.58,19.83,3.81-12.17,10.57-27.8,20.44-29.39,13.1-2.11,66.69-13.52,89.83-26.12.08-.04.17-.07.26-.08,13.15-1.3,22.59-1.33,27.31-.12h0c.77.2,1.31.46,1.83.71l.14.07c.29.14.45.47.37.79,0,.18,0,.34-.06.51-1.68,5.21-5.64,9.41-9.17,12.3,2.67-1.03,5.79-2.05,8.83-2.64.24-.05.49.04.65.23.16.19.21.44.13.68-11.87,34.5-85.97,141.86-113.87,182.28-1.71,2.48-3.89,5.45-6.01,8.32-1.01,1.37-2.02,2.74-3,4.08-.04.06-.09.11-.15.15-8.91,6.55-18.05,11.68-27.16,15.25-20.39,7.97-47.28,12.75-62.83,15.04,18.03-.81,51.73-3.9,77.11-15.44.29-.13.63-.05.83.2.2.25.2.6,0,.85-29.52,37.66-59.46,66.57-88.99,85.92-27.94,18.3-54.88,27.48-80.47,27.48ZM1112,28.09c-54.85,16.81-156.26,54.57-224.1,119.81-36.26,34.86-51.91,68.79-46.52,100.84,8.81,52.45,71.82,82.12,72.45,82.41,35.45,13.02,74.28,5.99,115.35-20.91,28.84-18.89,58.08-46.96,86.95-83.44-36.34,15.43-87.3,14.73-87.83,14.72-.36,0-.66-.3-.68-.66-.01-.36.25-.68.62-.72.45-.05,44.94-4.82,75.07-16.61,8.97-3.51,17.97-8.57,26.76-15.02.96-1.31,1.95-2.66,2.94-4,2.11-2.86,4.29-5.82,5.98-8.28,27.56-39.93,100.27-145.27,113.29-180.79-6.91,1.58-14.07,5.26-14.48,5.47,0,0-.01,0-.02.01-.33.17-.75.04-.93-.29-.18-.34-.05-.75.29-.93,0,0,0,0,0,0h0s0,0,0,0c.31-.16,11.9-6.32,15.04-15.79-.38-.17-.76-.34-1.26-.47t0,0c-4.54-1.17-13.77-1.12-26.69.14-23.15,12.55-74.89,23.75-90.15,26.21-14.52,2.33-22.35,39.37-23,42.57-.03.14-.04.21-.04.22-.08.37-.44.61-.81.54-.37-.07-.62-.44-.54-.81.01-.08.04-.23.09-.45.56-2.87,3.61-19.1,3.85-33.91.05-3.13-.48-6.37-1.64-9.86Z"/>
        </g>
        <g>
          <path class="cls-1" d="M1113.08,26.01c-.32-.16-.7-.18-1.07-.06-90.67,27.69-171.98,68.95-225.58,120.49-40.28,38.74-54.01,74.84-46.02,107.97,6,24.86,23.56,46.12,47.71,63.59.63.45,1.52.32,1.98-.28.47-.61.32-1.46-.3-1.92-23.66-17.11-40.85-37.84-46.67-61.97-7.74-32.13,5.63-67.35,45.27-105.47,53.23-51.19,134.19-92.26,224.47-119.83.74-.23,1.15-.98.91-1.69-.13-.36-.38-.66-.7-.82Z"/>
          <path class="cls-4" d="M888.97,318.95c-.44,0-.87-.13-1.25-.4-26.16-18.92-42.3-40.45-47.98-63.99-8.34-34.57,7.21-71.12,46.21-108.63,51.52-49.53,129.62-91.25,225.86-120.65.52-.17,1.08-.14,1.57.1h0c.47.23.85.67,1.05,1.21.18.53.13,1.07-.11,1.55-.26.5-.7.87-1.25,1.04-94.26,28.79-173.88,71.29-224.2,119.67-37.89,36.43-53.06,71.69-45.08,104.81,5.43,22.51,21.04,43.23,46.41,61.57.47.34.77.84.85,1.4.08.54-.07,1.08-.4,1.51-.41.53-1.04.81-1.68.81ZM1112.47,26.56c-.08,0-.16.01-.25.04-96.05,29.34-173.96,70.94-225.32,120.33-38.63,37.15-54.04,73.25-45.83,107.31,5.6,23.21,21.56,44.47,47.45,63.19.32.23.79.17,1.03-.14.13-.17.14-.35.13-.47-.03-.19-.13-.36-.29-.48-25.63-18.54-41.43-39.52-46.94-62.36-8.1-33.62,7.19-69.33,45.47-106.13,50.47-48.53,130.28-91.15,224.75-119.99.19-.06.34-.18.42-.35.05-.1.1-.27.03-.47-.07-.18-.2-.34-.35-.42h0c-.1-.05-.2-.07-.3-.07Z"/>
        </g>
        <g>
          <path class="cls-1" d="M1253.25,2.17c-13.93-3.1-25.6-1.25-43.42,5.15-1.29.46-7.77,2.86-8.68,3.2-6.38,2.36-10.62,3.79-15.1,5.08-12.63,3.62-42.09,9.94-42.2,9.97-19.41,5.07-25.85,13.42-34.85,46.53-.19.73.28,1.46,1.03,1.66.76.19,1.52-.25,1.72-.98,8.77-32.28,14.58-39.8,32.85-44.57,0,0,29.5-6.35,42.24-10,4.57-1.31,8.9-2.78,15.34-5.16.9-.33,7.35-2.7,8.62-3.16,16.5-5.93,27.5-7.69,39.95-5.32-1.7,3.46-3.55,6.1-6.28,8.53-.97.86-2.05,1.73-3.52,2.85-.82.63-3.97,3-4.37,3.3-.61.46-.72,1.31-.23,1.9.49.59,1.36.7,1.98.24.39-.3,3.58-2.66,4.41-3.29,1.51-1.16,2.62-2.09,3.64-3,3.49-3.09,5.77-6.21,7.85-11.05.34-.78-.13-1.68-.99-1.87Z"/>
          <path class="cls-4" d="M1110.39,74.49c-.17,0-.35-.02-.52-.07-.55-.14-1.03-.5-1.32-.98-.27-.47-.35-1.01-.21-1.52,8.99-33.08,15.59-41.87,35.34-47.03h0s.26-.06.72-.16c9.01-1.96,31.1-6.84,41.46-9.81,4.36-1.25,8.58-2.67,15.05-5.06l1.31-.49c2.22-.82,6.36-2.35,7.37-2.71,18.94-6.81,30.4-8.16,43.81-5.18.62.14,1.13.53,1.42,1.09.28.54.29,1.17.05,1.73-2.07,4.8-4.39,8.07-8.02,11.29-.82.73-1.99,1.74-3.68,3.03-.5.39-1.89,1.41-2.98,2.23-.7.52-1.28.95-1.43,1.07-.92.69-2.21.54-2.93-.35-.35-.43-.51-.96-.45-1.51.06-.55.35-1.04.79-1.38.41-.31,3.55-2.67,4.37-3.3,1.52-1.16,2.56-2,3.48-2.82,2.33-2.07,4.07-4.35,5.71-7.5-11.48-2.01-22.1-.5-38.68,5.46-1.27.46-7.71,2.83-8.61,3.16-6.66,2.46-10.98,3.91-15.39,5.18-11.59,3.32-39.75,9.54-42.26,10h0c-18.25,4.77-23.69,12.19-32.36,44.09-.26.92-1.11,1.53-2.04,1.53ZM1240.45,1.39c-8.66,0-17.86,2.08-30.39,6.59-1,.36-5.14,1.89-7.35,2.71l-1.32.49c-6.5,2.4-10.75,3.83-15.15,5.09-10.4,2.98-32.52,7.87-41.55,9.83l-.68.15c-19.32,5.04-25.43,13.22-34.34,46.05-.05.2,0,.36.07.46.1.17.27.29.47.34.39.1.78-.12.89-.49,8.74-32.18,14.66-40.18,33.34-45.06.31-.06,29.52-6.35,42.23-10,4.38-1.26,8.67-2.7,15.3-5.15.9-.33,7.35-2.71,8.62-3.16,17.28-6.21,28.2-7.66,40.32-5.35.21.04.39.18.49.37s.1.42,0,.61c-1.85,3.75-3.77,6.37-6.44,8.74-.95.84-2.01,1.7-3.56,2.88-.82.63-3.97,3-4.38,3.31-.14.11-.23.26-.25.44-.02.17.03.34.14.47.25.31.71.36,1.03.12.15-.11.73-.55,1.44-1.07,1.09-.81,2.46-1.83,2.96-2.21,1.31-1,2.39-1.89,3.6-2.97,3.51-3.11,5.66-6.14,7.67-10.81.11-.24.03-.45-.02-.55-.1-.19-.27-.32-.48-.37h0c-4.31-.96-8.42-1.46-12.65-1.46Z"/>
        </g>
        <g>
          <path class="cls-1" d="M1213.08,33.53c-.36.04-.74.18-.99.47-.07.08-1.23,1.44-1.74,2.01-1.45,1.66-3.11,3.58-5.07,5.73-5.57,6.14-12,12.96-19.2,20.23-20.56,20.8-43.16,41.24-67.09,59.78-18.31,14.17-36.7,26.68-55,37.14-1.32.76-12.55,7.18-14.97,8.6-6.23,3.64-11.85,7.05-17.43,10.61-14.06,8.98-27.13,18.45-39.85,29.3-43.77,37.35-79.38,87.09-105.4,154.98-13.92,36.33-56.9,156.02-114.93,318.97-79.5,220.3-171.68,476.91-171.68,476.91l2.45.58-.07.16c-.25.71.15,1.47.88,1.72.74.25,1.53-.13,1.78-.84l.12-.37,21.58,5.25s226.9-690.21,269.03-800.81c19.62-51.5,28.13-64.64,41.11-86.95,12.94-22.24,29.73-41.09,40.01-51.86.35-.36.79-.83,1.12-1.17,5.18-5.03,10.46-9.86,15.89-14.5,12.63-10.77,25.59-20.22,39.55-29.14,5.55-3.55,11.09-6.94,17.3-10.55,2.41-1.41,13.65-7.81,14.97-8.56,18.42-10.53,36.96-23.12,55.36-37.38,24.04-18.61,46.67-39.1,67.32-59.99,7.22-7.3,13.7-14.13,19.3-20.3,1.96-2.16,3.66-4.1,5.11-5.77.52-.58,1.71-1.95,1.8-2.04.49-.58.4-1.46-.21-1.94-.3-.24-.67-.3-1.03-.28Z"/>
          <path class="cls-4" d="M626.47,1165.46c-.05,0-.11,0-.16-.02l-20.98-5.1c-.46.92-1.55,1.38-2.56,1.04-.54-.18-.98-.56-1.22-1.06-.15-.3-.22-.63-.2-.96l-1.77-.42c-.19-.04-.35-.17-.45-.34-.09-.17-.11-.38-.04-.56.92-2.57,93.1-259.13,171.68-476.91,64.55-181.27,102.15-285.61,114.94-318.98,24.98-65.15,59.52-115.94,105.6-155.26,12.09-10.33,25.15-19.93,39.92-29.36,5.41-3.46,10.96-6.83,17.46-10.62,2.21-1.29,11.73-6.74,14.4-8.27l.58-.33c17.79-10.17,36.27-22.65,54.92-37.09,22.7-17.59,45.25-37.68,67.02-59.72,6.73-6.8,13.18-13.6,19.18-20.21,1.73-1.9,3.23-3.62,4.55-5.14l.51-.58c.39-.44,1.15-1.33,1.53-1.76l.22-.25c.33-.39.84-.64,1.44-.7,0,0,.01,0,.02,0,.58-.05,1.1.1,1.51.42.44.35.72.85.78,1.41.06.56-.11,1.09-.46,1.52l-.41.47c-.42.48-1.06,1.21-1.4,1.59-1.45,1.67-3.15,3.6-5.12,5.77-5.67,6.25-12.17,13.08-19.32,20.32-22.01,22.26-44.68,42.46-67.39,60.05-18.78,14.55-37.43,27.14-55.44,37.43l-2.48,1.42c-3.81,2.18-10.66,6.08-12.48,7.14-5.86,3.41-11.35,6.76-17.27,10.54-14.39,9.2-27.3,18.71-39.47,29.08-5.28,4.51-10.61,9.38-15.85,14.46l-1.11,1.16c-16.66,17.44-30.09,34.84-39.91,51.72l-2.76,4.73c-11.69,19.97-20.13,34.41-38.3,82.12-41.64,109.32-266.75,793.88-269.02,800.78-.09.29-.36.47-.66.47ZM604.89,1158.83c.05,0,.11,0,.16.02l20.96,5.1c7.86-23.92,227.73-692.3,268.84-800.23,18.21-47.82,26.68-62.29,38.4-82.32l2.76-4.73c9.88-16.98,23.37-34.47,40.11-51.99l1.13-1.17c5.27-5.12,10.63-10.01,15.93-14.54,12.21-10.42,25.17-19.96,39.62-29.19,5.94-3.79,11.44-7.15,17.32-10.57,1.82-1.06,8.67-4.97,12.49-7.15l2.48-1.42c17.95-10.26,36.55-22.82,55.28-37.33,22.66-17.55,45.29-37.71,67.25-59.93,7.14-7.22,13.63-14.04,19.28-20.28,1.96-2.16,3.65-4.09,5.1-5.76.34-.39.98-1.11,1.4-1.59l.41-.46c.1-.12.15-.29.13-.47-.02-.19-.11-.35-.26-.47-.13-.11-.31-.14-.54-.13-.23.03-.42.11-.52.23l-.22.25c-.38.44-1.15,1.33-1.54,1.77l-.5.58c-1.33,1.52-2.84,3.25-4.57,5.16-6.01,6.63-12.48,13.44-19.22,20.25-21.82,22.08-44.41,42.21-67.16,59.84-18.7,14.48-37.23,26.99-55.08,37.19l-.58.33c-2.68,1.53-12.19,6.98-14.39,8.27-6.48,3.78-12.02,7.15-17.41,10.59-14.72,9.4-27.73,18.96-39.77,29.25-45.9,39.17-80.31,89.77-105.21,154.71-12.79,33.36-50.38,137.69-114.93,318.95-76.51,212.04-165.91,460.84-171.42,476.18l1.7.4c.2.05.37.18.46.37.09.19.09.41,0,.59l-.07.16c-.04.13,0,.3.06.41.08.17.23.3.42.36.37.12.78-.06.91-.41l.11-.35c.09-.29.36-.48.66-.48Z"/>
        </g>
        <g>
          <path class="cls-1" d="M1155.43,161.67c-.36-.03-.75.04-1.04.28-.09.08-1.56,1.27-2.18,1.76-1.8,1.41-3.85,3-6.12,4.67-6.49,4.75-13.46,9.38-20.67,13.6-10.39,6.1-20.35,10.77-29.46,13.49-6.67,1.99-14.74,4.24-24.02,6.71-1.57.41-3.18.85-4.79,1.28-10.55,2.78-21.86,5.65-33.13,8.44-3.94.98-14.79,3.63-14.97,3.67-.76.18-1.23.93-1.04,1.67.19.73.95,1.14,1.7.96.19-.05,11.11-2.68,15.06-3.66,11.28-2.8,22.56-5.65,33.13-8.44,1.62-.42,3.22-.86,4.79-1.27,9.31-2.5,17.47-4.78,24.17-6.78,9.37-2.8,19.48-7.53,30.05-13.73,7.28-4.27,14.37-9.01,20.93-13.81,2.29-1.69,4.35-3.23,6.16-4.66.64-.5,2.15-1.74,2.25-1.83.59-.49.65-1.34.14-1.92-.25-.29-.59-.41-.95-.43Z"/>
          <path class="cls-4" d="M1019.35,218.94c-.93,0-1.76-.6-2.01-1.51-.14-.53-.06-1.09.23-1.56.29-.48.77-.83,1.32-.96l1.56-.38c3.18-.78,10.36-2.54,13.41-3.29,12.81-3.18,23.64-5.95,33.12-8.44,1.61-.43,3.22-.87,4.79-1.28,9.67-2.58,17.52-4.78,24-6.71,8.71-2.61,18.57-7.12,29.31-13.43,6.95-4.08,13.89-8.65,20.61-13.56,2.3-1.69,4.38-3.3,6.1-4.66.61-.47,2.02-1.62,2.15-1.73.43-.35.96-.5,1.55-.45h0c.59.05,1.08.28,1.42.67.37.41.55.94.51,1.49-.04.55-.3,1.05-.73,1.41-.1.09-1.63,1.35-2.26,1.84-1.71,1.35-3.73,2.88-6.18,4.67-7.02,5.14-14.09,9.8-20.99,13.85-11.01,6.46-21.18,11.1-30.2,13.8-6.56,1.96-14.7,4.24-24.18,6.78l-1.79.48c-.99.26-1.99.53-3,.8-9.44,2.49-20.28,5.26-33.13,8.45-3.95.98-14.87,3.61-15.06,3.66-.18.04-.35.06-.53.06ZM1155.28,162.36c-.14,0-.33.02-.45.13-.09.09-1.59,1.3-2.19,1.77-1.73,1.36-3.82,2.98-6.14,4.68-6.76,4.95-13.73,9.54-20.73,13.64-10.83,6.36-20.8,10.92-29.61,13.56-6.49,1.94-14.35,4.13-24.04,6.72-1.56.41-3.18.85-4.79,1.28-9.48,2.5-20.32,5.26-33.14,8.45-3.05.75-10.23,2.51-13.41,3.29l-1.56.38c-.2.05-.37.17-.47.33-.09.15-.12.33-.08.49.09.35.47.56.87.46.19-.05,11.11-2.68,15.06-3.66,12.84-3.19,23.67-5.95,33.11-8.44,1.01-.26,2.01-.53,3-.79l1.79-.48c9.47-2.54,17.6-4.82,24.14-6.77,8.92-2.67,18.98-7.26,29.9-13.66,6.87-4.03,13.89-8.66,20.87-13.78,2.43-1.79,4.44-3.31,6.14-4.65.62-.48,2.08-1.68,2.21-1.8.16-.13.25-.29.26-.46.01-.17-.05-.34-.17-.47-.05-.05-.16-.18-.49-.21-.03,0-.06,0-.1,0Z"/>
        </g>
      </g>
      <g>
        <path class="cls-5" d="M922.14,285.37s-45.89,24.64-90.31,59.58c-44.41,34.94-174.65,157.15-176.98,175.95-2.33,18.81,33.01,54.59,39.38,58.24,6.38,3.64,218.76-249.32,226.84-264.29,8.09-14.97,1.06-29.48,1.06-29.48Z"/>
        <path class="cls-7" d="M926.82,278.04c1.81-.25,3.22.4,4.12,2.08,0,0,14.72,6.94-10.5,52.89-25.21,45.95-118.18,163.96-143.3,208.24-35.71,63-56.94,105.94-56.94,105.94,0,0-44.73,6.11-63.77-17.02-19.04-23.12-36.89-68.62,8.33-116.94,6.7-7.17,16.22-16.19,27.51-26.49,1.78,20.84,16.47,41.48,16.47,41.48,0,0-3.28-8.78-10.06-26.85-2.68-7.16-2.73-13.52-1.85-18.65,29.01-26.17,71.58-62.26,133.84-115.38,32.87-28.05,59.09-57.72,76.75-74.84.33.64.57,1.28,1.05,1.91,6.34,8.27,4.27,28.96,4.27,28.96,0,0,5.62-10.51,5.5-23.04-.06-5.42-1.73-10.37-3.52-14.46,4.99-4.3,9.25-7.42,12.11-7.82Z"/>
        <path class="cls-4" d="M692.64,485.78c.4.14.74.47.78.91.68,8,3.32,16.55,7.36,25.22,1.9,4.08,3.98,7.91,6.09,11.38.74,1.22,1.43,2.29,2.04,3.22.22.33.73,1.1.76,1.14.34.48.22,1.12-.31,1.43-.52.3-1.24.17-1.58-.3-.04-.06-.6-.87-.83-1.21-.64-.96-1.35-2.05-2.11-3.3-2.15-3.54-4.25-7.44-6.17-11.59-3.77-8.08-6.3-16.06-7.26-23.66-11.36,10.39-19.89,18.55-25.8,24.85-20.58,22.01-29.31,44.73-28,67.22,1.05,17.91,8.54,34.89,19.72,48.47,5.8,7.05,14.44,11.77,25.22,14.51,9.77,2.49,20.4,3.16,30.66,2.64,1.84-.09,3.52-.22,4.98-.36.52-.06,1.74-.18,1.81-.2.63-.08,1.22.3,1.33.87.1.56-.31,1.1-.93,1.18-.09.02-1.36.17-1.89.22-1.51.15-3.24.26-5.13.35-10.5.53-21.39-.15-31.44-2.71-11.24-2.86-20.29-7.85-26.44-15.31-11.44-13.9-19.07-31.23-20.15-49.57-1.34-23.01,7.57-46.24,28.52-68.63,6.26-6.7,15.17-15.25,27.55-26.54.34-.31.81-.39,1.21-.25Z"/>
        <path class="cls-5" d="M932.15,279.42c.41.15.74.43.93.83.43.89,1.02,2.55,1.54,4.9,2.64,12.21.06,27.81-11.12,46.07-10.03,16.38-21.99,33.68-47.48,69.27-35.33,49.34-45.14,63.2-62.85,89.54-11.29,16.79-21.78,32.95-31.66,48.86-39.43,63.49-74.79,135.51-93.2,190.64-33.11,99.16-54.35,182.37-68.33,266.45-9.92,59.7-15.95,118.21-16.91,156.58-.13,5.23-.15,9.74-.13,13.55,0,1.33.06,4.38.06,4.57.04.86-.7,1.56-1.65,1.57-.24,0-.41-.15-.63-.22l-19.47-.89s22.26-166.47,35.12-223.93c22.42-100.13,74.79-238.47,74.68-238.09,19.39-53.38,50.91-112.98,87.43-171.79,9.9-15.95,20.44-32.14,31.74-48.96,17.75-26.37,27.55-40.24,62.9-89.61,25.44-35.53,37.38-52.82,47.36-69.12,10.78-17.62,13.26-32.45,10.77-43.96-.27-1.24-.58-2.32-.89-3.22-.19-.52-.34-.87-.41-1-.39-.79,0-1.69.86-2.04.43-.17.92-.16,1.34,0Z"/>
        <path class="cls-4" d="M926.63,277.02c.62-.08,1.22.3,1.32.87.11.56-.3,1.1-.93,1.18-2.27.31-6,2.8-11.51,7.55-.45.39-1.17.37-1.6-.05-.44-.41-.43-1.07.02-1.46,5.88-5.07,9.78-7.69,12.71-8.09Z"/>
        <path class="cls-4" d="M907.57,291.47c.36.06.71.27.88.6.07.16.29.62.33.68.25.52.41.81.62,1.09,2.36,3.08,3.73,7.77,4.37,13.73.37,3.36.48,6.94.39,10.52-.03,1.29-.11,2.53-.18,3.64-.05.74-.12,1.73-.12,1.74-.06.57-.6.99-1.22.93-.64-.06-1.11-.56-1.05-1.13,0,0,.07-.99.12-1.7.06-1.09.14-2.28.17-3.55.09-3.5-.02-6.98-.37-10.26-.62-5.63-1.92-10.08-4-12.79-.14-.18-.25-.44-.37-.64-3.41,3.33-7.02,6.95-12.53,12.64-1.67,1.71-13.69,14.15-16.28,16.81-14.63,14.93-26.96,26.82-39.95,38.31-2.31,2.04-4.62,4.05-6.93,6.02-108.45,92.55-110.23,94.11-133.8,115.38-.44.4-1.2.39-1.65-.02-.45-.41-.45-1.1,0-1.49,23.59-21.29,25.4-22.8,133.88-115.37,2.29-1.96,4.58-3.96,6.88-6,12.96-11.45,25.23-23.33,39.83-38.23,2.6-2.64,14.62-15.06,16.28-16.77,6.01-6.19,10.07-10.28,13.72-13.82.28-.27.64-.35.99-.3Z"/>
        <path class="cls-5" d="M730.44,598.64s-.04,0-.06,0c-.35-.02-35.04-2.48-53.6-23.21-18.57-20.73-17.3-38.53-17.24-39.28.04-.51.49-.88.99-.84.51.04.88.49.84.99-.01.18-1.22,17.8,16.78,37.9,18.05,20.16,52.01,22.58,52.35,22.6.51.03.89.47.86.98-.03.49-.44.86-.92.86Z"/>
        <path class="cls-5" d="M650.38,574.23c-.4,0-.76-.26-.88-.66-2.38-7.89-1.99-12.97-1.97-13.18.04-.51.49-.88.99-.84.51.04.88.49.84.99,0,.05-.37,4.98,1.9,12.5.15.49-.13,1-.62,1.15-.09.03-.18.04-.27.04Z"/>
        <path class="cls-5" d="M719.18,620.22c-2.19,0-36.34-.35-54.41-20.53-3.45-3.86-6.44-7.88-8.88-11.93-.26-.44-.12-1,.31-1.26.44-.26,1-.12,1.26.31,2.38,3.95,5.3,7.87,8.67,11.65,18.03,20.12,52.76,19.91,53.12,19.92.49.02.93.4.93.91,0,.51-.4.93-.91.93-.01,0-.05,0-.11,0Z"/>
      </g>
      <g>
        <path class="cls-5" d="M35.76,139.23c-18.62-1.11-31.53,6.1-35.76,26.18,0,0,0,35.73,55.74,82.68,55.75,46.95,142.5,113.24,142.5,113.24l-26.42-13.35s23.32,32.05,38.57,41.18c15.24,9.13,62.07,55.59,90.27,91.82,28.19,36.22,79.04,96.98,118.75,67.91,39.69-29.06,82.22-61.53,31.11-133.53-14.5-20.42-32.65-41.21-53.22-61.65.78,5.59.98,7.38,2.17,15.2,2.35,15.44-9.48,30.81-9.48,30.81,0,0,5.4-12.88,4.5-27.57-.4-6.46-4.15-18.06-8.11-29.04-38.63-36.6-84.81-71.54-132.59-100.58,9.24,20,17.62,52.04,17.62,52.04,0,0-11.59-27.85-21.37-46.67-2.27-4.36-4.72-8.33-7.15-11.93-10.92-6.4-21.91-12.49-32.87-18.18-64.7-33.61-133.3-76.15-174.26-78.57Z"/>
        <path class="cls-8" d="M35.76,139.23c-11.98-.71-21.54,2.08-28.01,9.47,36.93,44.39,88.08,91.57,135.77,85.96,23.85-2.81,44.1-10.05,61.35-19.6-63.18-33.15-129.23-73.47-169.12-75.83Z"/>
        <path class="cls-7" d="M29.46,164.79c-.37-.06-.77.02-1.09.25-.64.47-.73,1.35-.24,1.97.06.07.98,1.2,1.37,1.68,1.12,1.35,2.44,2.94,3.96,4.71,4.33,5.07,9.36,10.73,15.01,16.84,16.15,17.49,34.14,35.15,53.52,51.86,20.83,17.96,42.03,33.75,63.34,46.7,57.29,34.82,100.25,63.42,140.09,95.47,13.44,10.81,25.7,21.44,36.8,31.93,16.08,18.37,48.45,56.41,54.43,71.35,8,20.04,31.4,93.13,44.53,119.16,13.11,26.03,53.91,105.51,73.44,207.43,19.52,101.91,49.76,377.98,49.76,377.98l17.26-1.24-.02-.08c.12.02.22.1.36.08.79-.07,1.37-.75,1.29-1.52-.03-.19-5.36-46.5-7.33-63.06-5.63-47.3-11.5-94.62-17.34-138.81-1.54-11.64-3.06-22.92-4.56-33.82-7.06-51.49-13.46-93.11-18.91-122.32-6.01-32.23-17.37-68.43-34.12-111.06-8.13-20.68-17.24-42.24-28.98-68.85-2.81-6.38-27.77-62.23-34.42-77.59-12.09-27.87-20.49-48.93-26.46-67.11-12.73-38.73-48.89-80.42-103.86-124.63-39.96-32.14-83.01-60.8-140.41-95.68-21.15-12.86-42.26-28.58-62.97-46.43-19.28-16.63-37.18-34.21-53.26-51.63-5.64-6.09-10.66-11.71-14.96-16.75-1.51-1.76-2.83-3.33-3.93-4.68-.39-.47-1.29-1.57-1.34-1.64-.25-.31-.59-.48-.96-.52Z"/>
        <path class="cls-7" d="M444.46,421.44c-.52.07-.9.55-.82,1.07.02.13.06.38.11.76.07.66.14,1.42.19,2.27.51,8.79-.98,18.34-5.7,27.02-.36.65-.72,1.31-1.11,1.94-2.57,4.18-6.38,9.38-11.16,15.36-1.28,1.6-2.61,3.22-4,4.91-4.02,4.83-8.29,9.79-12.55,14.56-1.49,1.67-5.63,6.14-5.7,6.23-.35.38-.3.98.1,1.32.4.35,1.01.33,1.37-.05.07-.08,4.2-4.6,5.7-6.28,4.27-4.79,8.56-9.73,12.58-14.59,1.41-1.69,2.74-3.35,4.03-4.96,4.83-6.03,8.66-11.27,11.27-15.53.41-.66.81-1.34,1.18-2.03,4.91-9.03,6.44-18.91,5.91-28-.06-.88-.11-1.67-.18-2.36-.06-.41-.11-.73-.14-.89-.08-.51-.55-.85-1.09-.76Z"/>
        <path class="cls-7" d="M383.15,461.05c-2.01-.45-5.49-.12-10.73,1.64-7.86,2.65-18.15,8.06-31.19,16.94,0,0,0,.02,0,.03-5.54,3.77-11.27,5.86-16.98,6.59-3.95.51-7.42.32-10.17-.21-.46-.09-.77-.18-.93-.23-.51-.15-1.06.13-1.21.63-.15.5.14,1.02.65,1.17.2.06.59.15,1.11.25,2.95.57,6.63.76,10.8.23,6.01-.77,12.03-2.95,17.83-6.89,0,0,.03-.02.04-.03,12.91-8.79,23.04-14.13,30.71-16.72,2.81-.95,5.1-1.45,6.96-1.63,1.24-.12,2.12-.06,2.67.06.06,0,.09,0,.08,0,.51.18,1.08-.06,1.27-.53.19-.48-.06-1-.57-1.19-.07-.04-.18-.08-.35-.12Z"/>
        <path class="cls-7" d="M458.37,446.55c-.52.1-.85.6-.74,1.11.02.07.05.22.08.47.06.44.12.96.17,1.54.64,8.17-1.53,17.8-8.51,27.47-2.12,2.95-4.72,6.12-7.89,9.72-1.69,1.92-3.51,3.9-5.76,6.33.79-.85-7.21,7.7-9.18,9.86-3.24,3.55-5.57,6.32-7.35,8.76-.86,1.18-1.73,3.27-2.58,6.06-.45,1.5-.88,3.1-1.27,4.72-.14.56-.44,2.04-.47,2.16-.1.51.23,1.01.76,1.11.52.11,1.02-.21,1.12-.72.03-.1.37-1.57.5-2.12.38-1.57.79-3.14,1.23-4.6.79-2.61,1.58-4.57,2.28-5.53,1.73-2.38,4.04-5.08,7.25-8.59,1.95-2.15,9.96-10.7,9.18-9.86,2.27-2.43,4.09-4.42,5.8-6.35,3.2-3.64,5.83-6.85,7.99-9.85,7.26-10.05,9.5-20.09,8.82-28.67-.05-.63-.11-1.18-.18-1.66-.05-.29-.07-.51-.1-.62-.1-.51-.63-.82-1.15-.72Z"/>
      </g>
      <g>
        <path class="cls-7" d="M345.65,277.52c3.43.06,9.74,1.93,17.82,5.07,12.87,12.56,45.46,29.72,54.43,33.85,9.91,4.57,7.37,32.92,7.37,32.92,0,0,.98-12.54,3.92-23.47.67-2.5,1.88-4.74,3.27-6.72,45.5,29.15,97,71.56,125.65,120.66,57.8,99.04-52.12,116.78-52.12,116.78-58.86,4.7-96.29-62.48-114.89-108.08,21.06,17.77,56.41,26.97,56.41,26.97,0,0-28.58-11.32-46.47-24.83-6.13-4.64-11.04-9.97-14.94-14.97-1.22-3.33-2.62-6.97-3.59-9.83-12.2-36.12-39.3-116.66-40.57-141.03,4.74,2.37,9.38,6.74,9.38,6.74,0,0-6.85-6.42-7.08-13.62,0-.1.06-.21.06-.31.41-.07.8-.16,1.35-.15Z"/>
        <path class="cls-4" d="M432.27,318.25c.24-.05.49,0,.71.16,54.56,34.96,100.37,77.13,125.96,120.98,19.24,32.96,21.46,59.29,9.92,79.67-8.66,15.29-24.27,26.08-43.5,33.15-.5.18-1.07-.06-1.26-.55-.19-.48.06-1.02.57-1.21,18.84-6.93,34.1-17.44,42.5-32.28,11.2-19.76,9.03-45.45-9.89-77.88-25.42-43.55-71.03-85.54-125.35-120.35-.44-.29-.57-.85-.28-1.28.15-.21.37-.37.62-.41Z"/>
        <path class="cls-4" d="M344.35,276.72c9.77.53,17.12,3.9,27.66,11.4.76.53,4.59,3.32,5.11,3.7,3.77,2.73,6.29,4.45,9.01,6.12,7.64,4.72,25.87,14.3,25.93,14.34,11.84,6.93,14.51,13.61,14.17,37.1,0,.52-.45.92-.99.91-.54-.02-.96-.45-.95-.97.32-22.89-2.09-28.93-13.23-35.44,0,0-18.25-9.61-25.96-14.38-2.77-1.7-5.34-3.47-9.15-6.23-.53-.39-4.33-3.13-5.08-3.67-9.76-6.94-16.68-10.13-25.34-10.86.46,2.6,1.18,4.67,2.52,6.78.48.74,1.03,1.52,1.78,2.52.42.57,2.05,2.71,2.27,2.98.31.41.22.99-.21,1.3-.43.3-1.03.21-1.34-.21-.2-.27-1.86-2.4-2.29-2.98-.77-1.04-1.33-1.86-1.83-2.64-1.71-2.69-2.62-5.17-3.09-8.73-.07-.58.41-1.09,1.01-1.06Z"/>
        <path class="cls-8" d="M364.89,304.8c.23.09.45.26.56.49.03.07.54,1.18.76,1.65.64,1.35,1.38,2.94,2.26,4.71,2.51,5.08,5.46,10.76,8.83,16.88,9.62,17.51,20.67,35.14,32.93,51.78,9.39,12.72,19.16,24.35,29.24,34.61.73.75,6.92,7.05,8.25,8.44,3.42,3.55,6.48,6.82,9.49,10.2,7.57,8.51,14.39,17.16,20.73,26.66,21.8,32.68,35.86,72.04,40.17,121.61,2.31,26.52,8,113.36,15.43,231.5,10.73,159.9,22.95,346.1,22.95,346.1l-1.72-.06.02.11c.03.52-.38.95-.91.98-.53.03-.99-.37-1.01-.88v-.26s-15.22-.52-15.22-.52c0,0-19.01-496.94-25.86-577.62-3.19-37.57-6.32-47.81-10.66-64.91-4.33-17.05-11.82-32.57-16.58-41.56-.16-.3-.36-.69-.52-.98-2.46-4.27-5.04-8.43-7.74-12.49-6.28-9.42-13.05-18.05-20.56-26.5-2.98-3.36-6-6.61-9.4-10.14-1.33-1.38-7.52-7.66-8.25-8.41-10.15-10.33-19.99-22.05-29.43-34.84-12.32-16.7-23.37-34.38-33.03-51.95-3.39-6.15-6.37-11.84-8.9-16.95-.87-1.79-1.63-3.37-2.27-4.73-.23-.48-.76-1.61-.8-1.69-.21-.47.02-1.03.51-1.24.25-.1.51-.07.74,0Z"/>
        <path class="cls-8" d="M378.66,399.92c.24.05.49.17.64.38.05.06.78,1.12,1.11,1.57.91,1.25,1.97,2.68,3.15,4.2,3.38,4.33,7.11,8.67,11.06,12.77,5.69,5.93,11.37,10.85,16.87,14.32,4.02,2.54,8.91,5.51,14.57,8.85.95.56,1.93,1.14,2.92,1.72,6.43,3.78,13.34,7.75,20.24,11.67,2.42,1.37,9.06,5.11,9.18,5.18.46.26.64.85.37,1.3-.27.44-.84.58-1.31.32-.11-.06-6.81-3.81-9.24-5.18-6.91-3.92-13.8-7.88-20.24-11.67-.99-.58-1.97-1.16-2.92-1.72-5.67-3.36-10.62-6.36-14.65-8.91-5.65-3.57-11.43-8.56-17.22-14.59-4-4.16-7.77-8.58-11.19-12.97-1.2-1.53-2.26-2.93-3.18-4.2-.33-.45-1.09-1.55-1.13-1.63-.3-.42-.18-1,.27-1.29.22-.14.46-.16.71-.11Z"/>
      </g>
      <g>
        <path class="cls-5" d="M1144.2,678.29s72.27-1,69.41-7c-2.85-6-56.35-21.56-72.93-21.02-16.58.53-55.3.27-64.89-1.36-9.59-1.63-44.91,3.36-44.91,3.36l6.66-13.19s-218.26-1.51-261.54,17.05c-43.27,18.55-42.27,39.52-28.36,48.88,13.92,9.37,37.85,4.45,41.55,13.92,3.71,9.48.06,19,.06,19,0,0,8.96-13.04,21.65-12.25,12.7.78,40.36-.62,59.55-9.42,19.19-8.8,88.44-39.55,121.04-48.54,30.22-8.33,65.51-12.12,89.38-5.13,23.87,6.99,63.33,15.69,63.33,15.69Z"/>
        <path class="cls-7" d="M974.3,673.06s70.6-36.61,99.04-30.35c28.44,6.25,83.22,23.82,101.58,25.11,18.35,1.3,40.37,3.29,40.37,3.29,0,0-35.18,17.53-62.71,13.94-27.53-3.6-75.42-23.31-100.21-24.44-24.78-1.14-78.08,12.45-78.08,12.45Z"/>
        <path class="cls-7" d="M1025.55,652.9c.53.05.93.53.87,1.04-.05.52-.51.87-1.04.81-.05,0-6.36-.53-11.03-.81-7.17-.41-15.03-.68-23.41-.77-23.25-.23-46.53,1.08-68.45,4.42-36.02,5.51-64.98,16.02-84.19,32.51-25.36,21.77-50.51,47.08-73.47,74.95-27.72,33.65-51.13,69.64-68.96,107.53-9.49,20.16-21.23,49.1-34.77,85.22-5.03,13.41-10.27,27.68-15.67,42.75-12.69,35.33-25.75,73.25-38.46,111.18-4.45,13.28-14.57,43.98-15.54,46.95-.33,1.03-1.12,3.48-1.17,3.64-.17.49-.7.77-1.22.63-.51-.16-.78-.68-.63-1.17.06-.16,3.26-10.06,4.53-13.93,3.63-11.08,7.71-23.43,12.16-36.71,12.71-37.95,25.79-75.85,38.49-111.19,5.41-15.07,10.65-29.39,15.68-42.81,13.56-36.17,25.29-65.13,34.8-85.33,17.89-38.03,41.42-74.15,69.24-107.92,23.03-27.95,48.23-53.35,73.68-75.19,19.52-16.76,48.82-27.38,85.17-32.94,22.04-3.37,45.43-4.68,68.79-4.45,8.41.08,16.29.36,23.5.78,4.69.28,8.35.55,10.81.79.14,0,.22.02.28.03Z"/>
        <path class="cls-7" d="M751.16,686.03c.24.07.42.25.54.48,2.85,5.67,10.19,8.4,24.01,10.37,1.56.22,2.57.37,5.65.76,4.14.53,6.14.81,8.32,1.19,5.88,1.01,10.56,3.9,14.19,8.02,1.42,1.61,2.59,3.32,3.51,4.99.31.59.58,1.13.79,1.62.14.3.23.52.28.64.18.49-.08,1-.59,1.17-.51.18-1.04-.08-1.22-.57-.04-.09-.11-.26-.23-.52-.19-.44-.45-.95-.75-1.49-.85-1.57-1.94-3.15-3.26-4.65-3.35-3.81-7.66-6.44-13.06-7.37-2.15-.37-4.1-.64-8.2-1.18-3.09-.4-4.14-.54-5.71-.77-14.46-2.05-22.22-4.95-25.47-11.4-.23-.46-.04-1.02.44-1.24.25-.11.53-.13.76-.05Z"/>
        <path class="cls-7" d="M845.16,682.41s-64.67,60.53-113.37,139.96c-7.75,12.62-30.32,52.9-44.43,90.3-39.03,103.47-80.66,252.68-80.66,252.68l-14.75-6.97s82.88-248.6,102.33-286.72c19.44-38.12,46.14-87.9,75.12-119.22,35-37.83,75.76-70.03,75.76-70.03Z"/>
      </g>
      <path class="cls-2" d="M720.48,1122.28c28.58,9.52,45.5,20.09,44.63,29.93-1.95,21.87-90.57,31.82-197.93,22.23-107.35-9.58-192.81-35.07-190.85-56.94.85-9.5,18.13-16.72,46.16-21.09,5.21-.82,7.46,4.66,3.64,7.86-11.13,9.31-17.6,17.16-17.9,20.49-1.04,11.63,70.69,27.55,160.22,35.55,89.53,7.99,162.95,5.04,163.99-6.6.3-3.37-5.38-12.45-15.72-23.84-3.58-3.94-1.26-9.26,3.77-7.59Z"/>
      <path class="cls-1" d="M375.93,1113.22s6.64,18.55,58.97,31.42c13.57,3.34,41.23,10.27,64.1,14.01,33.41,5.44,66.99,9.01,69.7,9.29,0,0,31.71,3.26,66.92,3.84,23.17.38,51.62-1.55,65.57-2.43,53.78-3.4,63.59-20.47,63.59-20.47,0,0,3.26,96.66-15.86,168.06-19.11,71.4-70.1,153.01-70.1,153.01-11.59,20.88-70.8,32.47-140.77,26.22-70.93-6.33-127.78-28.75-134.24-51.68h-.12s-35.76-89.4-41.92-163.05c-6.16-73.66,14.16-168.22,14.16-168.22Z"/>
      <path class="cls-4" d="M645.81,1179.52c-24.1,0-50.7-1.19-78.75-3.69-52.01-4.64-100.55-13.14-136.68-23.92-25.99-7.76-56.71-20.05-55.41-34.53,1.22-13.75,30.78-20.38,55.36-23.52.76-.09,1.45.44,1.55,1.2.1.76-.44,1.45-1.2,1.55-32.84,4.2-52.15,11.86-52.96,21.03-.87,9.71,18.62,21.25,53.45,31.64,35.96,10.73,84.31,19.19,136.14,23.82,115.46,10.3,194.77-2.54,196.42-21,.84-9.38-17.52-20.56-50.37-30.7-.73-.23-1.14-1-.91-1.73.23-.73.99-1.14,1.73-.91,24.56,7.58,53.57,19.55,52.31,33.58-1.53,17.1-50.46,27.19-120.67,27.2Z"/>
    </g>
    <g>
      <path class="cls-6" d="M602.56,176.18l57.98-57.98c3.24-3.24,8.49-3.24,11.73,0h0c3.24,3.24,3.24,8.49,0,11.73l-57.98,57.98c-3.23,3.24-8.49,3.24-11.73,0h0c-3.23-3.24-3.23-8.49,0-11.73Z"/>
      <path class="cls-6" d="M614.29,118.19l57.98,57.98c3.24,3.24,3.24,8.49,0,11.73h0c-3.24,3.24-8.49,3.24-11.73,0l-57.98-57.98c-3.23-3.24-3.23-8.49,0-11.73h0c3.24-3.24,8.5-3.24,11.73,0Z"/>
    </g>
    <path class="cls-6" d="M1181.85,219.26c-23.1,0-41.81,18.71-41.81,41.82s18.71,41.84,41.81,41.84,41.85-18.74,41.85-41.84-18.74-41.82-41.85-41.82ZM1181.85,230.31c17,0,30.8,13.77,30.8,30.77s-13.8,30.79-30.8,30.79-30.76-13.8-30.76-30.79,13.77-30.77,30.76-30.77Z"/>
    <path class="cls-6" d="M764.78,1006.1c-23.1,0-41.81,18.71-41.81,41.81s18.71,41.85,41.81,41.85,41.85-18.74,41.85-41.85-18.74-41.81-41.85-41.81ZM764.78,1017.15c17,0,30.8,13.76,30.8,30.76s-13.8,30.8-30.8,30.8-30.76-13.8-30.76-30.8,13.77-30.76,30.76-30.76Z"/>
  </g>
</svg>