<?xml version="1.0" encoding="UTF-8"?>
<svg id="_Ñëîé_1" data-name="Ñëîé 1" xmlns="http://www.w3.org/2000/svg" viewBox="0 0 1049.33 1243.3">
  <defs>
    <style>
      .cls-1 {
        opacity: .73;
      }

      .cls-1, .cls-2, .cls-3, .cls-4 {
        isolation: isolate;
      }

      .cls-5 {
        fill: #35374b;
      }

      .cls-5, .cls-6, .cls-2, .cls-7, .cls-8, .cls-4, .cls-9 {
        stroke-width: 0px;
      }

      .cls-6 {
        fill: #ea869f;
      }

      .cls-2 {
        opacity: .56;
      }

      .cls-2, .cls-7, .cls-4 {
        fill: #fff;
      }

      .cls-8 {
        fill: #fffbf3;
      }

      .cls-3 {
        opacity: .41;
      }

      .cls-4 {
        opacity: .25;
      }

      .cls-9 {
        fill: #fbadb5;
      }
    </style>
  </defs>
  <g id="Illustration">
    <path class="cls-6" d="M203.85,940.17c13.78-4.6,44.04,48.55,44.04,48.55l-32.74,54.9s-25.07-98.85-11.3-103.45Z"/>
    <path class="cls-5" d="M682.58,30.35S593.71,1.62,545.5,2.92c-48.21,1.31-84.96,39.14-84.24,71.23.72,32.1,24.63,114.4,24.63,114.4l151.04,18.27,72.29-9.19s61.8-206.46-26.64-167.29Z"/>
    <path class="cls-5" d="M881.44,827.18s37.24-252.81,5.81-285.49c-40.71-42.32-267.35-80.73-385.96-73.09-118.62,7.64-253.77,18.45-286.32,81.09-26.27,50.55-16.45,295.03-16.45,295.03l29.75,12.25,111.45-22.23,16.91,355.32,420.9-2.54,9.28-294.62,94.63-65.72Z"/>
    <path class="cls-6" d="M738.2,839.8s53.06,3.37,87.97-4.47c34.9-7.83,56.47-19.58,56.47-19.58l-85.64,300.2-80.83-14.05s-51.3-130.46,22.03-262.1Z"/>
    <path class="cls-6" d="M211.23,838.24s42.53,310.67,62,320.03c19.48,9.36,122.67,16.05,122.67,16.05,0,0-20.44-255.59-24.89-314.24-.58-7.71-14.07-16.36-18.01-31.87-31.04-11.26-97.27-10.24-141.76,10.04Z"/>
    <g>
      <g>
        <path class="cls-5" d="M89.93,1146.03l37.82.39c7.13.07,12.85,5.91,12.77,13.04l-.19,19.28c-.07,7.13-5.91,12.85-13.04,12.77l-37.82-.39c-7.13-.07-12.85-5.91-12.77-13.04l.19-19.28c.07-7.13,5.91-12.85,13.04-12.77Z"/>
        <path class="cls-7" d="M127.43,1192.44h-.15l-37.82-.39c-3.69-.04-7.15-1.51-9.74-4.15-2.58-2.64-3.99-6.13-3.95-9.82l.19-19.28c.04-3.69,1.51-7.15,4.15-9.74s6.11-3.99,9.82-3.95l37.82.39c3.69.04,7.15,1.51,9.74,4.15,2.58,2.64,3.99,6.13,3.95,9.82l-.19,19.28c-.04,3.69-1.51,7.15-4.15,9.74-2.6,2.55-6.03,3.95-9.67,3.95ZM89.79,1146.95c-3.15,0-6.13,1.21-8.38,3.42-2.29,2.24-3.57,5.24-3.6,8.44l-.19,19.28c-.03,3.2,1.18,6.22,3.42,8.51,2.24,2.29,5.24,3.56,8.44,3.6l37.82.39s.09,0,.13,0c3.15,0,6.13-1.21,8.38-3.42,2.29-2.24,3.57-5.24,3.6-8.44l.19-19.28c.03-3.2-1.18-6.22-3.42-8.51-2.24-2.29-5.24-3.56-8.44-3.6l-37.82-.39h0s-.09,0-.13,0Z"/>
      </g>
      <g>
        <path class="cls-5" d="M187.82,1147.03l37.81.39c7.13.07,12.85,5.91,12.78,13.04l-.2,19.28c-.07,7.13-5.91,12.85-13.04,12.78l-37.81-.39c-7.13-.07-12.85-5.91-12.78-13.04l.2-19.28c.07-7.13,5.91-12.85,13.04-12.78Z"/>
        <path class="cls-7" d="M225.29,1193.44h-.13l-37.81-.39c-7.62-.08-13.76-6.34-13.69-13.97l.2-19.29c.08-7.58,6.28-13.7,13.84-13.7.04,0,.08-.02.13,0l37.81.39c7.62.08,13.76,6.35,13.69,13.97l-.2,19.29c-.08,7.58-6.28,13.69-13.84,13.69ZM187.7,1147.95c-6.56,0-11.93,5.3-12,11.87l-.2,19.28c-.06,6.61,5.27,12.04,11.87,12.11l37.81.39s.07,0,.11,0c6.56,0,11.93-5.3,12-11.87l.2-19.28c.06-6.61-5.27-12.04-11.87-12.11l-37.81-.39s-.07,0-.11,0Z"/>
      </g>
      <g>
        <path class="cls-5" d="M285.69,1148.03l37.82.39c7.13.07,12.85,5.91,12.77,13.04l-.19,19.28c-.07,7.13-5.91,12.85-13.04,12.77l-37.82-.39c-7.13-.07-12.85-5.91-12.77-13.04l.19-19.28c.07-7.13,5.91-12.85,13.04-12.77Z"/>
        <path class="cls-7" d="M323.2,1194.44h-.15l-37.82-.39c-7.62-.08-13.76-6.35-13.68-13.97l.19-19.28c.08-7.58,6.27-13.69,13.83-13.69h.14l37.82.39c3.69.04,7.15,1.51,9.74,4.15,2.58,2.64,3.99,6.13,3.95,9.82l-.19,19.28c-.04,3.69-1.51,7.15-4.15,9.74-2.6,2.55-6.03,3.95-9.67,3.95ZM285.56,1148.95c-6.55,0-11.92,5.3-11.99,11.86l-.19,19.28c-.07,6.61,5.25,12.04,11.86,12.11l37.82.39c3.17.03,6.22-1.18,8.51-3.42,2.29-2.24,3.57-5.24,3.6-8.44l.19-19.28c.03-3.2-1.18-6.22-3.42-8.51-2.24-2.29-5.24-3.57-8.44-3.6l-37.82-.39s-.08,0-.12,0Z"/>
      </g>
      <g>
        <path class="cls-5" d="M481.46,1150.03l37.81.39c7.14.07,12.86,5.91,12.78,13.04l-.19,19.28c-.07,7.13-5.91,12.85-13.05,12.77l-37.81-.39c-7.13-.07-12.85-5.91-12.77-13.04l.19-19.28c.07-7.13,5.91-12.85,13.04-12.77Z"/>
        <path class="cls-7" d="M518.95,1196.44h-.14l-37.81-.39c-7.62-.08-13.76-6.35-13.68-13.97l.19-19.28c.04-3.69,1.51-7.15,4.15-9.73,2.64-2.59,6.13-3.94,9.82-3.95l37.81.39c3.7.04,7.16,1.51,9.74,4.15,2.59,2.64,3.99,6.13,3.95,9.82l-.19,19.28c-.08,7.58-6.27,13.69-13.84,13.69ZM481.32,1150.95c-3.15,0-6.13,1.21-8.38,3.42-2.29,2.24-3.57,5.24-3.6,8.44l-.19,19.28c-.07,6.61,5.25,12.04,11.86,12.11l37.81.39s.08,0,.12,0c6.56,0,11.93-5.3,12-11.86l.19-19.28c.03-3.2-1.18-6.22-3.42-8.51-2.24-2.29-5.24-3.57-8.45-3.6l-37.81-.39h0s-.09,0-.13,0Z"/>
      </g>
      <g>
        <path class="cls-5" d="M579.34,1151.03l37.81.39c7.13.07,12.85,5.91,12.77,13.04l-.19,19.28c-.07,7.13-5.91,12.85-13.04,12.78l-37.81-.39c-7.13-.07-12.86-5.91-12.78-13.04l.2-19.28c.07-7.13,5.91-12.85,13.04-12.78Z"/>
        <path class="cls-7" d="M616.82,1197.44h-.13l-37.81-.39c-7.63-.08-13.77-6.35-13.69-13.97l.2-19.28c.08-7.58,6.28-13.7,13.84-13.7.04,0,.07.02.13,0l37.81.39c3.69.04,7.15,1.51,9.74,4.15,2.58,2.64,3.99,6.13,3.95,9.82l-.19,19.28c-.08,7.58-6.28,13.7-13.84,13.7ZM579.23,1151.95c-6.56,0-11.93,5.3-12,11.87l-.2,19.28c-.07,6.61,5.26,12.04,11.87,12.11l37.81.39s.07,0,.11,0c6.56,0,11.93-5.3,12-11.87l.19-19.28c.03-3.2-1.18-6.22-3.42-8.51-2.24-2.29-5.24-3.57-8.44-3.6l-37.81-.39h0s-.07,0-.11,0Z"/>
      </g>
      <g>
        <path class="cls-5" d="M677.22,1152.03l37.81.39c7.14.07,12.86,5.91,12.78,13.04l-.2,19.28c-.06,7.13-5.9,12.85-13.04,12.77l-37.81-.39c-7.13-.07-12.85-5.91-12.77-13.04l.19-19.28c.07-7.13,5.91-12.85,13.04-12.77Z"/>
        <path class="cls-7" d="M714.71,1198.44h-.15l-37.81-.39c-3.69-.04-7.15-1.51-9.74-4.15-2.58-2.64-3.99-6.13-3.95-9.82l.19-19.28c.04-3.69,1.51-7.15,4.15-9.74,2.64-2.58,6.12-3.93,9.82-3.95l37.81.39c3.7.04,7.16,1.51,9.74,4.15,2.59,2.64,3.99,6.12,3.95,9.82l-.2,19.29c-.03,3.69-1.5,7.14-4.14,9.73-2.61,2.55-6.04,3.96-9.68,3.96ZM677.09,1152.95c-3.16,0-6.13,1.21-8.39,3.42-2.29,2.24-3.57,5.24-3.6,8.44l-.19,19.28c-.03,3.2,1.18,6.22,3.42,8.51,2.24,2.29,5.24,3.56,8.44,3.6l37.81.39s.09,0,.13,0c3.16,0,6.14-1.22,8.4-3.43,2.28-2.24,3.56-5.23,3.59-8.43l.2-19.29c.03-3.2-1.18-6.22-3.42-8.51-2.24-2.29-5.24-3.57-8.45-3.6l-37.81-.39s-.08,0-.13,0Z"/>
      </g>
      <g>
        <path class="cls-5" d="M775.11,1153.02l37.81.39c7.13.07,12.85,5.91,12.77,13.04l-.19,19.28c-.07,7.13-5.91,12.85-13.04,12.78l-37.81-.39c-7.14-.07-12.86-5.91-12.78-13.04l.2-19.28c.06-7.13,5.9-12.85,13.04-12.78Z"/>
        <path class="cls-7" d="M812.58,1199.44h-.13l-37.81-.39c-3.7-.04-7.16-1.51-9.74-4.15-2.59-2.64-3.99-6.13-3.95-9.82l.2-19.28c.07-7.58,6.27-13.7,13.85-13.7h.13l37.81.39c7.62.08,13.76,6.35,13.69,13.97l-.19,19.28c-.08,7.58-6.28,13.69-13.84,13.69ZM774.99,1153.94c-6.57,0-11.94,5.3-12,11.87l-.2,19.29c-.03,3.2,1.18,6.22,3.42,8.51,2.24,2.29,5.24,3.57,8.45,3.6l37.81.39s.07,0,.11,0c6.56,0,11.93-5.3,12-11.87l.19-19.28c.07-6.61-5.25-12.04-11.86-12.11l-37.81-.39s-.07,0-.11,0Z"/>
      </g>
      <g>
        <path class="cls-5" d="M872.99,1154.03l37.81.39c7.13.07,12.86,5.91,12.78,13.04l-.2,19.28c-.07,7.13-5.91,12.85-13.04,12.77l-37.81-.39c-7.13-.07-12.85-5.91-12.77-13.04l.19-19.28c.07-7.13,5.91-12.85,13.04-12.77Z"/>
        <path class="cls-7" d="M910.48,1200.43h-.15l-37.81-.39c-7.62-.08-13.76-6.35-13.68-13.97l.19-19.28c.04-3.69,1.51-7.15,4.15-9.74,2.6-2.55,6.03-3.95,9.67-3.95h.15l37.81.39c7.63.08,13.77,6.35,13.7,13.97l-.2,19.28c-.04,3.69-1.51,7.15-4.15,9.74-2.6,2.55-6.03,3.95-9.67,3.95ZM872.85,1154.95c-6.55,0-11.92,5.29-11.98,11.86l-.19,19.28c-.07,6.61,5.25,12.04,11.86,12.11l37.81.39c3.24.08,6.22-1.18,8.51-3.42,2.29-2.24,3.56-5.24,3.6-8.44l.2-19.28c.07-6.61-5.26-12.04-11.87-12.11l-37.81-.39h0s-.08,0-.13,0Z"/>
      </g>
      <g>
        <path class="cls-5" d="M383.58,1149.03l37.81.39c7.13.07,12.85,5.91,12.77,13.04l-.19,19.28c-.07,7.13-5.91,12.85-13.04,12.78l-37.81-.39c-7.13-.07-12.86-5.91-12.78-13.04l.2-19.28c.07-7.13,5.91-12.85,13.04-12.78Z"/>
        <path class="cls-7" d="M421.05,1195.44h-.13l-37.81-.39c-7.63-.08-13.77-6.35-13.69-13.97l.2-19.28c.08-7.62,6.35-13.72,13.97-13.69h0l37.81.39c7.62.08,13.76,6.35,13.68,13.97l-.19,19.28c-.08,7.58-6.28,13.69-13.84,13.69ZM383.46,1149.95c-6.56,0-11.93,5.3-12,11.87l-.2,19.28c-.07,6.61,5.26,12.04,11.87,12.11l37.81.39s.07,0,.11,0c6.56,0,11.93-5.3,12-11.87l.19-19.28c.07-6.61-5.25-12.04-11.86-12.11l-37.81-.39h0s-.07,0-.11,0Z"/>
      </g>
    </g>
    <path class="cls-9" d="M270.99,900.44c-27.06,1.08-45.9,108.84-48.56,163.01-2.65,54.17,17.68,115.64,37.73,107.93,20.05-7.7,31.71-60.28,35.52-108.77,3.8-48.48,17.16-163.85-24.69-162.18Z"/>
    <path class="cls-9" d="M201.59,940c-23.65.94-40.12,95.14-42.45,142.51-2.32,47.36,15.46,101.1,32.98,94.36,17.53-6.73,27.73-52.71,31.05-95.09,3.32-42.38,15-143.24-21.59-141.78Z"/>
    <path class="cls-9" d="M327.09,937.71c-22.96.92-38.95,92.36-41.2,138.34-2.26,45.97,15,98.13,32.02,91.6,17.01-6.54,26.91-51.16,30.14-92.31,3.22-41.14,14.56-139.05-20.96-137.63Z"/>
    <path class="cls-9" d="M665.35,939.36c-29.4-1.89-40.09,31.11-45.62,78.4-5.53,47.3-8.95,158.93,16.19,155.93,25.14-2.99,49.03-50.61,61.65-96.62,12.62-46,19.86-134.37-32.21-137.72Z"/>
    <path class="cls-9" d="M729.61,967.35s-22.66,4.52-27.38,42.72c-4.72,38.19-24.2,146.43,8.04,151.92,32.23,5.5,49.27-46,58.98-103.39,9.71-57.38-13.44-98.73-39.64-91.25Z"/>
    <path class="cls-9" d="M800.01,985.42s-22.66,4.52-27.38,42.71c-4.72,38.2-24.2,146.43,8.03,151.93,32.24,5.5,49.28-46,58.99-103.39,9.71-57.39-13.45-98.73-39.64-91.25Z"/>
    <path class="cls-5" d="M13.6,1160.52c-30.11-2.69-5.05,62.17,24.84,82.78h987.55c15.91-23.72,36.18-59.98,12.55-62.09-35.12-3.14-989.8-17.56-1024.94-20.69Z"/>
    <path class="cls-9" d="M541.1,302.34s9.42,158.94-2.26,161.57c-11.68,2.64-79.18,9.57-79.18,9.57,0,0,.02.02.06.05,2.52,2.05,82.93,67.07,137.1,61.1,0,0,19.7.19,120.75-46.37.37-.17,1.27-.6,1.26-1.14-.03-.94-2.84-1.56-3.27-1.66-5.72-1.39-54.81-19.16-54.81-27.98,0-23.48,5.77-187.62,5.77-187.62l-125.42,32.49Z"/>
    <path class="cls-6" d="M541.77,384.98l2.53,52.87s43.93,2.76,70.69-19.16c26.76-21.93,51.08-119.1,51.08-119.1l-124.3,85.38Z"/>
    <path class="cls-9" d="M486.86,176.29s-.84,96.03,3.86,130.84c6.49,47.98,29.03,103.71,64.27,104.66,45.6,1.24,109.98-68.65,118.63-98.22,8.65-29.57,5.13-56.59,5.13-56.59,0,0,5.57,20.65,22.03-2.08,16.46-22.72,31.83-88.86,11.27-88.93-20.55-.07-23.01,18.78-23.01,18.78,0,0-67.7-30.6-86.95-48.9-19.25-18.31-34.74-50.8-34.74-50.8,0,0-56.43,20.79-67.85,33.4-11.43,12.62-12.64,57.85-12.64,57.85Z"/>
    <path class="cls-5" d="M511.87,218.98c.32-3.59,9.21,1.55,12.81,1.87,3.59.31,9.67.29,9.35,3.89-.32,3.6-3.23,9.72-10.52,9.13-10.09-.82-11.96-11.28-11.64-14.88Z"/>
    <path class="cls-6" d="M545.32,301.47l41.41-.17s-8.78,12.06-21.84,12.48c-13.08.42-19.57-12.31-19.57-12.31Z"/>
    <path class="cls-5" d="M535.96,224.96c-2.72,0-6.2-.79-10.39-3.3-12.23-7.32-30.88-2.38-31.07-2.32-.49.13-1-.16-1.13-.65-.13-.49.16-1,.65-1.13.79-.21,19.6-5.2,32.5,2.52,9.82,5.88,15.02,1.45,15.24,1.25.38-.33.96-.3,1.3.07.34.38.31.95-.07,1.29-.16.14-2.57,2.26-7.03,2.26Z"/>
    <path class="cls-5" d="M621.11,221.41c.32-3.59,11.57,2.95,15.16,3.26,3.6.32,7.76-1.16,7.45,2.43-.32,3.6-1.65,11.39-10.65,10.13-8.62-1.21-12.29-12.22-11.96-15.82Z"/>
    <path class="cls-6" d="M710.14,187.36s-26.98,22.98-27.98,29.96c-1,6.98,2.42,29.1,12.93,23.83,10.51-5.26,25.15-39.22,22.78-45.23-2.36-6-7.74-8.56-7.74-8.56Z"/>
    <path class="cls-2" d="M509.69,196.59l-29.98,68.29,17.73-2.1,30.35-64.47-18.11-1.71Z"/>
    <path class="cls-5" d="M640.12,227.39c-2.5,0-5.34-.54-8.28-2.13-17.18-9.3-28.9-4.37-29.02-4.32-.46.21-1.01,0-1.21-.47-.2-.46,0-1.01.47-1.21.51-.22,12.61-5.37,30.64,4.39,7.89,4.28,15.01.06,15.31-.12.43-.26,1-.13,1.26.31.26.43.13,1-.3,1.26-.22.14-3.85,2.3-8.86,2.3Z"/>
    <path class="cls-2" d="M663.02,201.68l-29.97,68.29,17.72-2.1,30.35-64.47-18.11-1.72Z"/>
    <path class="cls-6" d="M595.2,229.58c-.22,0-.44-.08-.62-.24-.09-.08-8.66-7.77-18.03-8.85-9.21-1.05-17.67,8.28-17.76,8.37-.34.38-.92.41-1.3.07-.38-.34-.41-.92-.07-1.3.37-.41,9.19-10.15,19.34-8.98,9.97,1.14,18.7,8.98,19.06,9.31.38.34.4.92.06,1.3-.18.2-.43.3-.68.3Z"/>
    <path class="cls-5" d="M681.87,215.93s19.86-31.96,28.69-30.89c8.82,1.07,6.85,13.45,6.85,13.45,0,0-.87-8.38-8.65-5.02-7.77,3.37-26.89,22.46-26.89,22.46Z"/>
    <path class="cls-4" d="M468.2,194.38l87.83,5.28,2.76,61.58-92.66,4.14,2.07-71Z"/>
    <path class="cls-5" d="M689.19,270.65h-.01l-95.86-1.1c-.25,0-.5-.11-.67-.3-.17-.19-.26-.44-.24-.69l4.95-69.41c.04-.5.47-.88.97-.85l87.82,5.28c.47.03.84.41.86.88l3.09,65.23c.01.25-.08.5-.26.68-.17.18-.41.28-.66.28ZM594.32,267.72l93.91,1.07-3-63.43-86.09-5.17-4.82,67.53Z"/>
    <path class="cls-5" d="M551.97,164.65s2.74,13.15-7.14,14.12c-3.15.3-10.49-5.96-17.88-7.37-15.81-3.03-34.66-3.4-32.93-7.16,2.54-5.51,55.49-7.24,57.95.41Z"/>
    <path class="cls-5" d="M609.01,181.94s-5.02,12.45,4.52,15.15c9.55,2.7,54.11.58,52.59-5.29-1.53-5.87-53.32-16.95-57.11-9.86Z"/>
    <path class="cls-5" d="M583.52,350.92c-2.4,0-5.05-.57-8.01-1.93-12.29-5.65-20.56-.6-20.64-.55-.43.27-1,.14-1.27-.29-.27-.43-.15-1,.28-1.27.37-.23,9.15-5.66,22.4.43,11.49,5.29,17.89-2.57,23.03-8.88,2.17-2.66,4.04-4.96,6.04-6.01.45-.24,1.01-.06,1.24.39.24.45.06,1.01-.39,1.24-1.67.88-3.43,3.04-5.47,5.54-4.04,4.96-9.22,11.32-17.22,11.32Z"/>
    <path class="cls-7" d="M391.7,906.78h0c-.51,0-.92-.41-.92-.92.02-18.48-7.84-29.04-17.8-42.42-4.97-6.68-10.6-14.24-15.7-23.66-14.86-27.46-12.94-173.08-12.85-179.26,0-.5.42-.91.92-.91h.01c.51,0,.91.43.91.93-.02,1.51-2.01,151.32,12.63,178.36,5.03,9.3,10.62,16.81,15.56,23.44,9.76,13.11,18.18,24.43,18.16,43.52,0,.51-.41.92-.92.92Z"/>
    <path class="cls-7" d="M577.69,560.87c-60.21,0-135.96-80.93-136.74-81.77-.35-.37-.32-.96.05-1.3.37-.34.95-.32,1.3.05.8.86,80.23,85.74,140.25,80.99,60.23-4.73,151.12-69.11,152.04-69.76.41-.3.99-.2,1.28.22.3.41.2.99-.22,1.28-.91.65-92.22,65.32-152.96,70.1-1.65.13-3.33.19-5.01.19Z"/>
    <path class="cls-5" d="M685.06,40.93s-13.04-34.38-26.48-38.26c-13.44-3.88-46.64-2.39-46.64-2.39,0,0,38.17,8.81,50.58,18.43,12.41,9.61,22.54,22.22,22.54,22.22Z"/>
    <g class="cls-3">
      <path class="cls-7" d="M208.42,1155.77s-.04,0-.06,0c-.51-.03-.89-.47-.86-.98.01-.21,1.43-21.3,1.09-34.78-.08-3.3-1.69-5.96-4.78-7.9-7.64-4.81-21.47-3.85-27.64-1.08-7.17,3.22-7.33,26.05-6.78,34.57.03.51-.35.95-.86.98-.5.03-.94-.35-.98-.86-.08-1.3-1.94-31.97,7.86-36.37,6.54-2.94,21.23-3.93,29.38,1.2,3.59,2.26,5.54,5.51,5.64,9.42.34,13.57-1.08,34.74-1.1,34.95-.03.49-.44.86-.92.86Z"/>
    </g>
    <path class="cls-9" d="M636.37,1044.88s-17.91,48.29-31.48,58.79c-13.57,10.5-65.11,13.39-63.77,26.97,1.34,13.58,36.02,28.04,53.27,27.58,17.25-.45,45.3-10.92,48.86-30.06,3.56-19.15-6.87-83.29-6.87-83.29Z"/>
    <g class="cls-1">
      <path class="cls-7" d="M275.21,1156.06s-.04,0-.06,0c-.51-.03-.89-.47-.86-.98.01-.21,1.44-21.3,1.09-34.78-.08-3.3-1.69-5.96-4.77-7.9-7.64-4.81-21.47-3.85-27.64-1.08-7.17,3.22-7.33,26.05-6.78,34.58.03.51-.35.95-.86.98-.49.03-.94-.35-.98-.86-.08-1.3-1.94-31.97,7.86-36.38,6.53-2.94,21.22-3.93,29.37,1.2,3.59,2.26,5.53,5.51,5.63,9.42.35,13.57-1.08,34.74-1.1,34.95-.03.49-.44.86-.92.86Z"/>
    </g>
    <g class="cls-1">
      <path class="cls-7" d="M808.2,1159.79s-.04,0-.06,0c-.51-.04-.89-.47-.86-.98.01-.21,1.44-21.29,1.1-34.78-.08-3.31-1.69-5.96-4.78-7.91-7.64-4.8-21.47-3.85-27.64-1.08-7.17,3.22-7.33,26.05-6.78,34.57.03.51-.35.95-.86.98-.49.04-.95-.35-.98-.86-.08-1.3-1.94-31.97,7.86-36.37,6.53-2.94,21.22-3.93,29.38,1.2,3.59,2.26,5.54,5.51,5.64,9.42.34,13.57-1.09,34.74-1.11,34.95-.03.49-.44.86-.92.86Z"/>
    </g>
    <g class="cls-1">
      <path class="cls-7" d="M736.47,1151.57s-.04,0-.06,0c-.51-.04-.89-.47-.86-.98.01-.21,1.44-21.3,1.1-34.78-.08-3.3-1.69-5.96-4.78-7.9-7.64-4.81-21.48-3.85-27.64-1.08-7.17,3.22-7.33,26.06-6.78,34.58.03.51-.35.95-.86.98-.49.06-.95-.35-.98-.86-.08-1.3-1.94-31.98,7.86-36.38,6.53-2.94,21.22-3.93,29.38,1.2,3.59,2.26,5.54,5.51,5.64,9.42.34,13.57-1.09,34.74-1.11,34.95-.03.49-.44.86-.92.86Z"/>
    </g>
    <g class="cls-1">
      <path class="cls-7" d="M659.41,1158.61s-.04,0-.06,0c-.51-.03-.89-.47-.86-.98.01-.21,1.43-21.3,1.09-34.78-.08-3.3-1.69-5.96-4.78-7.9-7.64-4.81-21.47-3.85-27.64-1.08-7.17,3.22-7.33,26.06-6.78,34.59.03.51-.35.95-.86.98-.5.06-.94-.35-.98-.86-.08-1.3-1.94-31.98,7.86-36.38,6.54-2.93,21.23-3.92,29.38,1.2,3.59,2.26,5.54,5.51,5.63,9.41.34,13.57-1.08,34.74-1.1,34.95-.03.49-.44.86-.92.86Z"/>
    </g>
    <g class="cls-1">
      <path class="cls-7" d="M332.97,1148.06s-.04,0-.06,0c-.51-.04-.89-.47-.86-.98.01-.21,1.44-21.3,1.09-34.78-.08-3.3-1.69-5.96-4.77-7.9-7.64-4.81-21.48-3.86-27.65-1.08-7.17,3.22-7.32,26.06-6.78,34.58.03.51-.35.94-.86.98-.51.05-.94-.35-.98-.86-.08-1.3-1.93-31.98,7.86-36.38,6.54-2.93,21.23-3.93,29.39,1.21,3.58,2.26,5.53,5.51,5.63,9.41.35,13.57-1.08,34.74-1.1,34.95-.03.49-.44.86-.92.86Z"/>
    </g>
    <path class="cls-9" d="M337.27,1043.84s49.5,54.99,61.16,57.31c11.66,2.32,48.31,30.15,44.44,40.81-3.87,10.66-67.25,11.08-83.58,8.73-16.33-2.34-20.56-45.17-22.44-55.47-1.89-10.3.42-51.38.42-51.38Z"/>
    <g class="cls-1">
      <path class="cls-7" d="M255.65,923.44c-.17,0-.33-.05-.49-.14-.43-.27-.56-.84-.29-1.27,11.91-19.11,31.09-15.46,31.28-15.42.5.1.82.59.72,1.08-.1.5-.59.82-1.08.72-.74-.14-18.14-3.41-29.35,14.59-.17.28-.47.43-.78.43Z"/>
    </g>
    <g class="cls-1">
      <path class="cls-7" d="M182.27,967.03c-.17,0-.34-.05-.49-.14-.43-.27-.56-.84-.29-1.27,11.91-19.1,31.09-15.45,31.28-15.42.5.1.82.59.72,1.08-.1.5-.59.82-1.08.72-.74-.15-18.14-3.4-29.35,14.59-.17.28-.48.43-.78.43Z"/>
    </g>
    <path class="cls-6" d="M301.45,980.19s-8.63,25.52-8.63,44.81-4.07,75.91-4.07,75.91c0,0-.51-69.06.26-84.04.76-14.98,11.17-47.23,12.44-55.35,1.27-8.12,0,18.66,0,18.66Z"/>
    <path class="cls-6" d="M231.33,986.51s-3.37,28.94-5.08,49.16c-1.63,19.22-6.08,77.34-6.08,77.34,0,0-.65-68.59,1.58-83.42,2.84-18.81,6.69-49.4,7.96-57.52,1.27-8.12,1.62,14.44,1.62,14.44Z"/>
    <path class="cls-6" d="M303.71,1021.53s8.83,2.55,19.81.9c10.97-1.64,22.19-2.17,22.19-2.17,0,0-18.19,5.06-23.64,5.76-5.45.7-18.35-4.49-18.35-4.49Z"/>
    <path class="cls-6" d="M636.5,1026.12s8.83,2.55,19.81.9c10.98-1.65,22.19-2.17,22.19-2.17,0,0-18.18,5.06-23.64,5.76-5.45.7-18.35-4.48-18.35-4.48Z"/>
    <path class="cls-6" d="M711.34,1041.19s8.83,2.55,19.81.91c10.97-1.65,22.19-2.17,22.19-2.17,0,0-18.19,5.05-23.64,5.75-5.46.7-18.35-4.49-18.35-4.49Z"/>
    <path class="cls-6" d="M238,1006.39s8.83,2.54,19.81.9c10.98-1.65,22.19-2.17,22.19-2.17,0,0-18.18,5.05-23.64,5.75-5.45.7-18.35-4.48-18.35-4.48Z"/>
    <path class="cls-6" d="M168.45,1031.43s8.83,2.55,19.81.9c10.97-1.64,22.19-2.17,22.19-2.17,0,0-18.19,5.06-23.64,5.76-5.45.7-18.35-4.49-18.35-4.49Z"/>
    <path class="cls-6" d="M709.92,980.73s-8.71,24.81-11.05,39.56c-2.35,14.75-4.86,32.03-4.39,42.3.46,10.26-1.63,32.69-1.63,32.69,0,0-2.81-46.22,6.17-90.85,2-9.94,10.9-23.7,10.9-23.7Z"/>
    <path class="cls-6" d="M773.27,1011.84s-.47,27.8-1.43,41.83c-.95,14.03-10.93,56.08-10.93,56.08,0,0,6.66-43.49,8.32-59.18,1.67-15.68,4.04-38.73,4.04-38.73Z"/>
    <path class="cls-6" d="M567.38,85.02s-56.45,20.8-67.88,33.42c-4.97,5.5-7.95,17.18-9.79,28.62,5.3-9.01,12.04-19.86,18.16-26.62,9.69-10.68,52.54-27.2,57.64-29.16,2.85,22.46,8.16,54.14,17.35,62.18,14.34,12.52,71,16.73,71,16.73l32,14.33-6.14-4.18c-18.61-8.76-62.5-30.12-77.63-44.51-8.64-8.21-16.24-19.17-22.3-28.89l-1.47,7.79s29.94,29.98,37.26,34.14c7.31,4.16,16.64,14.64,16.64,14.64,0,0-27.13-9.44-35.21-13.13-5.69-2.61-21.01-36.24-29.02-60.13,0,0,.49-.22.49-.22l.72-1.43c-.82-1.6-1.82-3.6-1.82-3.6Z"/>
    <path class="cls-5" d="M576.04,82.22s10.24,51.07,33.69,67.4c23.44,16.34,65.83,18.13,65.83,18.13,0,0-55.57-1.15-73.32-10.01-17.75-8.85-39.26-76.24-39.26-76.24l13.06.72Z"/>
    <path class="cls-5" d="M596.38,225.75c-.25,0-.51-.1-.69-.31-.08-.09-7.71-8.56-17.02-9.62-9.3-1.07-20.62,7.42-20.73,7.51-.4.31-.98.23-1.29-.18-.31-.4-.23-.98.18-1.29.49-.37,12.03-9.03,22.06-7.87,10.02,1.14,17.86,9.86,18.19,10.23.34.38.3.96-.08,1.3-.18.16-.39.23-.61.23Z"/>
    <g>
      <path class="cls-8" d="M391.5,743.44c4.3.71,8.24,1.07,11.82,1.07s5.87-.03,6.86-.08c-.11-4.19-.17-8.21-.17-12.07v-7.85c0-1.38.06-2.25.17-2.61.11-.36.47-.71,1.08-1.03.61-.33,1.48-.5,2.64-.5,1.66,0,2.48.99,2.48,2.97v29.27c0,6.07-.13,12.74-.41,20.01-.06,1.59-1.41,2.39-4.05,2.39-1.33,0-1.99-.8-1.99-2.39l.33-21.91c-1.76.11-4.17.17-7.23.17s-6.91-.33-11.54-.99c0,7.28.33,14.88.99,22.82.06.88-.33,1.56-1.16,2.03-.83.47-1.86.7-3.1.7s-1.92-.64-2.03-1.9c-.71-7.83-1.07-15.55-1.07-23.15l.5-25.8c0-1.1.41-1.92,1.23-2.44.83-.53,1.71-.79,2.65-.79,1.54,0,2.31.75,2.31,2.24l-.33,19.85Z"/>
      <path class="cls-8" d="M429.29,756.5l.17,10.83c0,1.44-.03,2.21-.08,2.32l14.3-.25c1.6.17,2.4.85,2.4,2.06,0,2.32-1.08,3.47-3.23,3.47l-16.2.17c-.99,0-1.72-.34-2.19-1.03-.47-.69-.73-1.42-.78-2.19-.06-.77-.08-1.63-.08-2.56v-13.73c-.72-.39-1.08-.96-1.08-1.73s.3-1.46.91-2.07c-.17-4.3-.25-8.21-.25-11.74,0-2.04,1.23-3.09,3.72-3.14h2.31l14.47.25h.08c1.77.22,2.65,1.05,2.65,2.49,0,1.1-.33,1.84-.99,2.23-1.44.77-4.88,1.16-10.33,1.16-2.04,0-4.08-.08-6.12-.25,0,4.95.03,7.75.08,8.35,2.15.06,6.36.08,12.65.08,1.7.21,2.56.99,2.56,2.31,0,.66-.28,1.3-.83,1.9-.55.61-1.14.96-1.78,1.04-.64.08-1.98.12-4.05.12s-4.83-.03-8.31-.08Z"/>
      <path class="cls-8" d="M461.21,775.26l-6.87-.17c-1.37,0-2.15-.41-2.31-1.23-.33-2.32-.5-5.93-.5-10.84l.58-23.97c0-1.38,1.05-2.07,3.14-2.07,1.05,0,1.91.25,2.57.75.65.5.99,1.19.99,2.07-.11,2.31-.39,5.51-.83,9.59-.65,5.35-.99,9.25-.99,11.7s.08,5.39.25,8.81l10.08-.58c-.06-1.38-.08-3.47-.08-6.29l.58-23.97c0-1.38,1.05-2.07,3.14-2.07,1.05,0,1.91.25,2.56.75.66.5.99,1.19.99,2.07-.11,2.31-.39,5.51-.83,9.59-.66,5.35-.99,9.25-.99,11.7s.08,5.39.25,8.81l12.23-.75c1.82,0,2.74.94,2.74,2.81,0,1.55-.58,2.42-1.74,2.64-2.48.39-5.27.58-8.35.58l-7.77-.08c-.66,0-1.18-.08-1.57-.25-2.27.28-4.69.41-7.28.41Z"/>
      <path class="cls-8" d="M505.94,737.31c4.08,0,7.37,1.57,9.88,4.72,2.51,3.14,3.76,7.44,3.76,12.9s-1.37,10.17-4.14,14.14c-2.75,3.97-6.25,5.95-10.5,5.95-4.63,0-8.41-1.98-11.33-5.95s-4.38-8.82-4.38-14.55,1.52-10.04,4.55-12.9c3.03-2.86,7.08-4.3,12.16-4.3ZM513.63,755.83c0-4.41-.64-7.64-1.91-9.72-1.26-2.06-3.5-3.09-6.69-3.09s-5.67.98-7.44,2.93c-1.77,1.96-2.64,4.74-2.64,8.35s.93,6.96,2.81,10.05c1.87,3.08,4.47,4.63,7.77,4.63,1.87,0,3.47-.8,4.8-2.4,2.2-2.75,3.31-6.34,3.31-10.75Z"/>
      <path class="cls-8" d="M544.71,740.95c0-.99.33-1.86.99-2.61.66-.74,1.49-1.11,2.49-1.11,1.15,0,1.9.75,2.23,2.24.28,1.87.77,5.81,1.49,11.82.71,6.01,1.32,10.7,1.81,14.06.94-1.71,1.89-3.63,2.86-5.75.97-2.13,1.67-3.63,2.11-4.51,1.37-2.64,2.84-3.96,4.38-3.96,1.15,0,2.31,1.4,3.47,4.21,3.03,6.4,4.71,9.84,5.04,10.34,2.16-9.82,3.67-18.66,4.55-26.54.06-.66.46-1.28,1.2-1.86.75-.58,1.45-.87,2.11-.87s1.22.18,1.66.54c.44.36.66.84.66,1.45,0,2.97-2.04,14.44-6.12,34.4-.33,1.43-1.48,2.15-3.47,2.15-.94,0-1.68-.47-2.23-1.4-1.05-1.82-2.39-4.37-4.02-7.65-1.62-3.28-2.74-5.47-3.34-6.58-2.38,5.57-4.32,9.6-5.83,12.07-1.52,2.49-3.13,3.72-4.83,3.72-.99,0-1.86-.88-2.61-2.64-.75-1.77-1.19-3.38-1.33-4.83-.14-1.46-1.23-10.35-3.27-26.67Z"/>
      <path class="cls-8" d="M603.5,737.31c4.08,0,7.37,1.57,9.88,4.72,2.5,3.14,3.76,7.44,3.76,12.9s-1.37,10.17-4.14,14.14c-2.75,3.97-6.25,5.95-10.5,5.95-4.63,0-8.41-1.98-11.33-5.95-2.92-3.97-4.38-8.82-4.38-14.55s1.52-10.04,4.55-12.9c3.03-2.86,7.08-4.3,12.16-4.3ZM611.19,755.83c0-4.41-.64-7.64-1.91-9.72-1.26-2.06-3.5-3.09-6.7-3.09s-5.67.98-7.44,2.93c-1.76,1.96-2.64,4.74-2.64,8.35s.94,6.96,2.81,10.05c1.88,3.08,4.47,4.63,7.77,4.63,1.88,0,3.47-.8,4.8-2.4,2.2-2.75,3.31-6.34,3.31-10.75Z"/>
      <path class="cls-8" d="M630.62,772.04c0,.83-.39,1.55-1.16,2.15-.77.61-1.63.91-2.56.91-1.22,0-1.82-.55-1.82-1.65-.22-2.6-.33-12.87-.33-30.84,0-1.77,1.07-3.14,3.19-4.14,2.12-.99,4.96-1.49,8.52-1.49s6.67.88,9.34,2.65c2.67,1.76,4.02,3.89,4.02,6.36,0,1.22-.53,2.56-1.57,4.05-1.05,1.48-2.16,2.66-3.35,3.51-1.18.86-2.87,1.89-5.08,3.1-2.2,1.22-3.55,1.88-4.05,1.99,3.47,2.2,6.57,4.6,9.26,7.19,2.7,2.59,4.05,4.62,4.05,6.11s-.66,2.45-1.99,2.89c-.39.11-.88.17-1.48.17s-1.38-.59-2.32-1.78c-.93-1.19-2.7-2.89-5.29-5.12-2.6-2.24-5.16-4.24-7.69-6,.11,4.4.22,7.69.33,9.84v.08ZM630.29,754.76c1.81,0,4.55-.9,8.19-2.69,3.64-1.8,5.53-3.46,5.7-5,0-1.49-.83-2.61-2.48-3.35-1.66-.75-3.39-1.11-5.21-1.11-2.09,0-4.14.25-6.12.75-.06,2.64-.08,6.45-.08,11.41Z"/>
      <path class="cls-8" d="M667.25,775.18l-7.86-.08c-1.38,0-2.15-.41-2.31-1.23-.33-2.32-.5-5.93-.5-10.84l.58-23.97c0-1.38,1.04-2.07,3.14-2.07,1.05,0,1.9.25,2.56.75.66.5.99,1.19.99,2.07-.11,2.31-.41,5.51-.91,9.59-.61,5.35-.91,9.25-.91,11.7s.08,5.39.25,8.81l12.24-.75c1.82,0,2.73.94,2.73,2.81,0,1.55-.57,2.42-1.73,2.64-2.49.39-5.24.58-8.27.58Z"/>
      <path class="cls-8" d="M684.36,772.95c-.71-.55-1.07-1.11-1.07-1.69s.19-1.12.58-1.61c-.55-4.25-.94-9.15-1.16-14.72-.22-5.57-.33-8.73-.33-9.47s.02-1.55.05-2.4c.02-.86.15-1.81.37-2.85.39-2.09,1.65-3.14,3.8-3.14,5.67,0,11.14,2.57,16.41,7.69,5.27,5.13,7.89,10.69,7.89,16.71,0,4.52-1.4,7.92-4.21,10.21-2.82,2.28-6.65,3.43-11.49,3.43-.94,0-2.27-.11-3.97-.33,0,.88-.36,1.66-1.08,2.32-.72.65-1.55.99-2.48.99-1.44,0-2.29-.71-2.57-2.15l-.75-2.97ZM688.58,743.19c-.06.6-.08,1.65-.08,3.14s.16,4.78.46,9.88c.3,5.09.7,9.44,1.2,13.02.44.11,2.15.17,5.13.17,6.45,0,9.67-1.82,9.67-5.46,0-4.63-1.47-8.77-4.42-12.41-2.96-3.64-6.93-6.42-11.95-8.34Z"/>
      <path class="cls-8" d="M728.93,718.21l-.75,28.2c0,3.03.03,5.01.08,5.95-.22.72-.64,1.35-1.28,1.91-.64.55-1.34.82-2.11.82s-1.41-.6-1.91-1.81c-.83-13.89-1.23-25.57-1.23-35.06.49-1.37,1.76-2.06,3.8-2.06s3.17.69,3.39,2.06ZM723.22,771.13c-.83-.99-1.23-1.98-1.23-2.97s.38-1.9,1.15-2.73c.77-.83,1.8-1.24,3.1-1.24s2.23.25,2.81.75c.58.5.87,1.57.87,3.22,0,2.92-1.21,4.38-3.64,4.38-1.21,0-2.23-.47-3.06-1.41Z"/>
    </g>
    <path class="cls-5" d="M466.12,266.3c-.24,0-.47-.09-.65-.26-.18-.18-.28-.43-.27-.68l2.07-71c0-.25.12-.48.3-.65.18-.17.41-.26.68-.24l87.83,5.28c.47.03.84.41.86.88l2.76,61.58c.01.24-.08.48-.24.66-.17.18-.39.29-.64.3l-92.66,4.14s-.03,0-.04,0ZM469.09,195.36l-2.02,69.05,90.75-4.05-2.68-59.83-86.05-5.17Z"/>
    <path class="cls-9" d="M461.83,471.11c-.66.04-2.79.16-3,1-.12.47.4,1,.85,1.38l46.22-1.92c6.31-1.82,12.62-3.64,18.94-5.46-34.63,2.78-59.58,4.78-63,5Z"/>
  </g>
</svg>